<?xml version="1.0" ?><svg id="Icons" viewBox="0 0 48 48" xmlns="http://www.w3.org/2000/svg"><defs><style>.cls-1,.cls-6{fill:#45413c;}.cls-1{opacity:0.15;}.cls-2{fill:#724f3d;}.cls-3{fill:#a86c4d;}.cls-4{fill:none;}.cls-4,.cls-5,.cls-6{stroke:#45413c;stroke-linecap:round;stroke-linejoin:round;}.cls-5{fill:#ffe500;}.cls-7{fill:#ff6242;}.cls-8{fill:#ffa694;}.cls-9{fill:#ffaa54;}</style></defs><title/><ellipse class="cls-1" cx="24" cy="44.5" data-name="&lt;Ellipse&gt;" id="_Ellipse_" rx="12.5" ry="1.5"/><path class="cls-2" d="M24,1.5A16.16,16.16,0,0,1,40.16,17.66V38.74A1.81,1.81,0,0,1,39,40.43h0a40.31,40.31,0,0,1-30,0H9a1.81,1.81,0,0,1-1.14-1.69V17.66A16.16,16.16,0,0,1,24,1.5Z" data-name="&lt;Path&gt;" id="_Path_"/><path class="cls-3" d="M24,1.5A16.16,16.16,0,0,0,7.84,17.66v4.47a16.16,16.16,0,0,1,32.32,0V17.66A16.16,16.16,0,0,0,24,1.5Z" data-name="&lt;Path&gt;" id="_Path_2"/><path class="cls-4" d="M24,1.5A16.16,16.16,0,0,1,40.16,17.66V38.74A1.81,1.81,0,0,1,39,40.43h0a40.31,40.31,0,0,1-30,0H9a1.81,1.81,0,0,1-1.14-1.69V17.66A16.16,16.16,0,0,1,24,1.5Z" data-name="&lt;Path&gt;" id="_Path_3"/><g data-name="&lt;Group&gt;" id="_Group_"><path class="cls-5" d="M37.47,21A13,13,0,0,1,29,13.57l-.93-2.21a23.56,23.56,0,0,1-14.78,9.17l-2.8.51a2.7,2.7,0,0,0,0,5.39l.17,0a13.45,13.45,0,0,0,26.6,0l.17,0a2.7,2.7,0,0,0,0-5.39Z" data-name="&lt;Path&gt;" id="_Path_4"/></g><g data-name="&lt;Group&gt;" id="_Group_2"><path class="cls-6" d="M15.93,23.18A1.15,1.15,0,1,0,17.07,22,1.14,1.14,0,0,0,15.93,23.18Z" data-name="&lt;Path&gt;" id="_Path_5"/><path class="cls-6" d="M32.07,23.18A1.15,1.15,0,1,1,30.93,22,1.14,1.14,0,0,1,32.07,23.18Z" data-name="&lt;Path&gt;" id="_Path_6"/><g data-name="&lt;Group&gt;" id="_Group_3"><g data-name="&lt;Group&gt;" id="_Group_4"><path class="cls-7" d="M20.31,30.47a.57.57,0,0,0-.44.2.54.54,0,0,0-.13.46,4.32,4.32,0,0,0,8.52,0,.54.54,0,0,0-.13-.46.57.57,0,0,0-.44-.2Z" data-name="&lt;Path&gt;" id="_Path_7"/><path class="cls-8" d="M24,32.24a5.37,5.37,0,0,0-3.29,1,4.36,4.36,0,0,0,6.58,0A5.37,5.37,0,0,0,24,32.24Z" data-name="&lt;Path&gt;" id="_Path_8"/></g></g><g data-name="&lt;Group&gt;" id="_Group_5"><path class="cls-4" d="M20.31,30.47a.57.57,0,0,0-.44.2.54.54,0,0,0-.13.46,4.32,4.32,0,0,0,8.52,0,.54.54,0,0,0-.13-.46.57.57,0,0,0-.44-.2Z" data-name="&lt;Path&gt;" id="_Path_9"/></g><ellipse class="cls-9" cx="15.18" cy="28.06" data-name="&lt;Ellipse&gt;" id="_Ellipse_2" rx="1.49" ry="0.89"/><ellipse class="cls-9" cx="32.82" cy="28.06" data-name="&lt;Ellipse&gt;" id="_Ellipse_3" rx="1.49" ry="0.89"/></g></svg>